<svg xmlns="http://www.w3.org/2000/svg" xmlns:xlink="http://www.w3.org/1999/xlink" width="500" zoomAndPan="magnify" viewBox="0 0 375 374.999991" height="500" preserveAspectRatio="xMidYMid meet" version="1.0"><defs><g/><clipPath id="9c1f8462f6"><path d="M 40.441406 94.925781 L 188.226562 94.925781 L 188.226562 111.328125 L 40.441406 111.328125 Z M 40.441406 94.925781 " clip-rule="nonzero"/></clipPath><clipPath id="2c206b77b0"><path d="M 40.441406 103.289062 L 56.84375 103.289062 L 56.84375 251.207031 L 40.441406 251.207031 Z M 40.441406 103.289062 " clip-rule="nonzero"/></clipPath><clipPath id="7241e532df"><path d="M 40.429688 255.960938 L 188.214844 255.960938 L 188.214844 272.363281 L 40.429688 272.363281 Z M 40.429688 255.960938 " clip-rule="nonzero"/></clipPath><clipPath id="38d0be3781"><path d="M 171.816406 116.082031 L 188.21875 116.082031 L 188.21875 264 L 171.816406 264 Z M 171.816406 116.082031 " clip-rule="nonzero"/></clipPath></defs><g fill="#f4f5f7" fill-opacity="1"><g transform="translate(55.639395, 251.210282)"><g><path d="M 5.984375 0 L 5.984375 -135.171875 L 47.203125 -135.171875 L 58.53125 -52.71875 L 69.875 -135.171875 L 111.40625 -135.171875 L 111.40625 0 L 86.703125 0 L 86.703125 -97.40625 L 71.125 0 L 46.890625 0 L 30.375 -97.40625 L 30.375 0 Z M 5.984375 0 "/></g></g></g><g clip-path="url(#9c1f8462f6)"><path fill="#ffa500" d="M 40.441406 94.925781 L 188.25 94.925781 L 188.25 111.328125 L 40.441406 111.328125 Z M 40.441406 94.925781 " fill-opacity="1" fill-rule="nonzero"/></g><g clip-path="url(#2c206b77b0)"><path fill="#ffa500" d="M 40.441406 251.207031 L 40.441406 103.269531 L 56.84375 103.269531 L 56.84375 251.207031 Z M 40.441406 251.207031 " fill-opacity="1" fill-rule="nonzero"/></g><g clip-path="url(#7241e532df)"><path fill="#6fac00" d="M 188.214844 272.363281 L 40.40625 272.363281 L 40.40625 255.960938 L 188.214844 255.960938 Z M 188.214844 272.363281 " fill-opacity="1" fill-rule="nonzero"/></g><g clip-path="url(#38d0be3781)"><path fill="#6fac00" d="M 188.21875 116.082031 L 188.21875 264.019531 L 171.816406 264.019531 L 171.816406 116.082031 Z M 188.21875 116.082031 " fill-opacity="1" fill-rule="nonzero"/></g><g fill="#f4f5f7" fill-opacity="1"><g transform="translate(203.98417, 238.124984)"><g><path d="M 3.75 0 L 3.75 -107.3125 L 24.484375 -107.3125 L 24.484375 0 Z M 3.75 0 "/></g></g></g><g fill="#f4f5f7" fill-opacity="1"><g transform="translate(258.327306, 238.124984)"><g><path d="M 1.625 0 L 13.109375 -56.96875 L 4 -107.4375 L 24.984375 -107.4375 L 30.609375 -70.453125 L 35.484375 -107.4375 L 56.59375 -107.4375 L 47.34375 -56.96875 L 58.84375 0 L 37.109375 0 L 30.359375 -41.96875 L 23.484375 0 Z M 1.625 0 "/></g></g></g></svg>