<svg xmlns="http://www.w3.org/2000/svg" xmlns:xlink="http://www.w3.org/1999/xlink" width="500" zoomAndPan="magnify" viewBox="0 0 375 374.999991" height="500" preserveAspectRatio="xMidYMid meet" version="1.0"><defs><g/><clipPath id="ec75eb33fc"><path d="M 74.957031 46.503906 L 300.042969 46.503906 L 300.042969 71.484375 L 74.957031 71.484375 Z M 74.957031 46.503906 " clip-rule="nonzero"/></clipPath><clipPath id="5795861d66"><path d="M 74.960938 59.242188 L 99.941406 59.242188 L 99.941406 284.527344 L 74.960938 284.527344 Z M 74.960938 59.242188 " clip-rule="nonzero"/></clipPath><clipPath id="e17181b93d"><path d="M 74.941406 291.773438 L 300.023438 291.773438 L 300.023438 316.753906 L 74.941406 316.753906 Z M 74.941406 291.773438 " clip-rule="nonzero"/></clipPath><clipPath id="1b1e4f6208"><path d="M 275.050781 78.726562 L 300.03125 78.726562 L 300.03125 304.015625 L 275.050781 304.015625 Z M 275.050781 78.726562 " clip-rule="nonzero"/></clipPath></defs><g fill="#1f2937" fill-opacity="1"><g transform="translate(98.106898, 284.53356)"><g><path d="M 9.109375 0 L 9.109375 -205.859375 L 71.890625 -205.859375 L 89.15625 -80.28125 L 106.40625 -205.859375 L 169.671875 -205.859375 L 169.671875 0 L 132.046875 0 L 132.046875 -148.34375 L 108.328125 0 L 71.421875 0 L 46.25 -148.34375 L 46.25 0 Z M 9.109375 0 "/></g></g></g><g clip-path="url(#ec75eb33fc)"><path fill="#ffa500" d="M 74.957031 46.503906 L 300.078125 46.503906 L 300.078125 71.484375 L 74.957031 71.484375 Z M 74.957031 46.503906 " fill-opacity="1" fill-rule="nonzero"/></g><g clip-path="url(#5795861d66)"><path fill="#ffa500" d="M 74.960938 284.527344 L 74.960938 59.214844 L 99.941406 59.214844 L 99.941406 284.527344 Z M 74.960938 284.527344 " fill-opacity="1" fill-rule="nonzero"/></g><g clip-path="url(#e17181b93d)"><path fill="#6fac00" d="M 300.023438 316.753906 L 74.902344 316.753906 L 74.902344 291.773438 L 300.023438 291.773438 Z M 300.023438 316.753906 " fill-opacity="1" fill-rule="nonzero"/></g><g clip-path="url(#1b1e4f6208)"><path fill="#6fac00" d="M 300.03125 78.726562 L 300.03125 304.042969 L 275.050781 304.042969 L 275.050781 78.726562 Z M 300.03125 78.726562 " fill-opacity="1" fill-rule="nonzero"/></g></svg>